<?xml version="1.0" encoding="iso-8859-1"?>
<!-- Generator: Adobe Illustrator 19.0.0, SVG Export Plug-In . SVG Version: 6.00 Build 0)  -->
<svg version="1.1" id="Capa_1" xmlns="http://www.w3.org/2000/svg" xmlns:xlink="http://www.w3.org/1999/xlink" x="0px" y="0px"
	 viewBox="0 0 512.001 512.001" style="enable-background:new 0 0 512.001 512.001;" xml:space="preserve">
<path style="fill:#FEA832;" d="M98.481,405.986c-7.852,0-14.444-6.094-14.956-14.033L70.268,186.406
	c-0.527-8.262,5.742-15.396,14.004-15.938c8.438-0.557,15.396,5.742,15.938,14.004l13.257,205.547
	c0.527,8.262-5.742,15.396-14.004,15.938C99.125,405.971,98.803,405.986,98.481,405.986z"/>
<path style="fill:#FE9923;" d="M326.645,441.83c-0.322,0-0.645-0.015-0.981-0.029l-205.547-13.257
	c-8.262-0.542-14.531-7.676-14.004-15.938c0.542-8.262,7.222-14.517,15.938-14.004l205.547,13.257
	c8.262,0.542,14.531,7.676,14.004,15.938C341.088,435.737,334.482,441.83,326.645,441.83z"/>
<path style="fill:#57555C;" d="M46.83,125.82c-15.788-15.788-18.491-45.142,0-63.633c5.859-5.859,5.859-15.352,0-21.211
	s-15.352-5.859-21.211,0c-29.884,29.884-28.635,77.42,0,106.055l15.963,15.963l27.316,4.922L64.915,143.9L46.83,125.82z"/>
<path style="fill:#3C3A41;" d="M471.093,465.239c-5.859-5.859-15.352-5.859-21.211,0c-16.428,16.428-42.175,16.851-59.832,2.521
	c-9.699-7.871-12.306-11.026-21.89-20.61l-9.587-3.283l-9.503,26.614c8.104,8.104,13.618,14.061,21.782,20.748
	c31.378,25.701,74.104,21.358,100.241-4.779C476.953,480.59,476.953,471.098,471.093,465.239z"/>
<path style="fill:#57555C;" d="M377.213,435.799l-9.001,11.4L349.013,470.6l-33.001-33.3c-5.4-5.402-6-14.101-0.899-20.101
	l15.899-19.2C371.513,348.5,367.913,277.1,322.613,231.8l-21.301-21l-21.3-21.3c-45-45.3-116.398-48.9-165.899-8.401L94.612,197
	c-5.999,4.799-14.399,4.499-20.099-0.901l-33-32.999l23.399-19.2l11.1-9.3c73.5-60,179.401-54.6,246.601,12.299l21.299,21.301
	l21.301,21.301C432.112,256.7,437.512,362.599,377.213,435.799z"/>
<path style="fill:#3C3A41;" d="M365.212,189.5c66.899,67.2,72.299,173.099,12.001,246.299l-9.001,11.4L349.013,470.6l-33.001-33.3
	c-5.4-5.402-6-14.101-0.899-20.101l15.899-19.2C371.513,348.5,367.913,277.1,322.613,231.8l-21.301-21l42.599-42.599L365.212,189.5z
	"/>
<path style="fill:#BF6015;" d="M422.799,110.501L131.813,401.6c-3.001,2.999-6.901,4.499-10.801,4.499s-7.5-1.5-10.499-4.499
	c-6-6-6-15.3,0-21.301L401.5,89.2c6-6,15.3-6,21.299,0C428.499,95.201,428.499,104.501,422.799,110.501z"/>
<path style="fill:#FD3018;" d="M131.813,380.3c-3.001-2.401-6.601-4.2-10.801-4.2H78.713c-3.9,0-7.8,1.5-10.8,4.2l-63.6,63.6
	c-4.2,4.501-5.402,10.8-3.301,16.5c2.401,5.7,7.8,8.601,14.101,8.601H42v28C42,503,46.012,508.7,51.712,510.8
	c1.8,0.901,3.9,1.201,5.7,1.201c3.9,0,7.8-1.501,10.501-4.2l63.9-63.9c2.699-2.701,4.199-6.599,4.199-10.499v-42.301
	C136.012,386.899,134.212,383.299,131.813,380.3z"/>
<path style="fill:#994C10;" d="M422.799,110.501L131.813,401.6c-3.001,2.999-6.901,4.499-10.801,4.499s-7.5-1.5-10.499-4.499
	L422.799,89.2C428.499,95.201,428.499,104.501,422.799,110.501z"/>
<path style="fill:#E61E14;" d="M131.813,380.3c2.399,2.999,4.199,6.599,4.199,10.8v42.3c0,3.9-1.5,7.798-4.199,10.499l-63.9,63.9
	c-2.701,2.699-6.601,4.2-10.501,4.2c-1.8,0-3.9-0.3-5.7-1.201c-5.7-2.1-9.712-7.8-9.712-13.799v-28L131.813,380.3z"/>
<path style="fill:#FD3018;" d="M507.7,4.3c-5.1-4.799-12.6-5.7-18.3-2.1L383.201,65.8c-3.9,2.401-6.601,6.301-7.202,11.102
	c-0.599,4.499,1.201,9,4.2,12.299l21.301,21.301l21.299,20.999c2.701,3,6.601,4.499,10.501,4.499h1.8
	c4.799-0.601,8.699-3.3,11.1-7.2l63.6-106.201C513.4,16.901,512.501,9.101,507.7,4.3z"/>
<path style="fill:#E61E14;" d="M509.8,22.599L446.2,128.8c-2.401,3.9-6.301,6.599-11.1,7.2h-1.8c-3.9,0-7.8-1.5-10.501-4.501
	L401.5,110.501L507.7,4.3C512.501,9.101,513.4,16.901,509.8,22.599z"/>
<g>
</g>
<g>
</g>
<g>
</g>
<g>
</g>
<g>
</g>
<g>
</g>
<g>
</g>
<g>
</g>
<g>
</g>
<g>
</g>
<g>
</g>
<g>
</g>
<g>
</g>
<g>
</g>
<g>
</g>
</svg>
